<mxfile host="app.diagrams.net" modified="2023-06-14T02:54:03.423Z" agent="Mozilla/5.0 (Windows NT 10.0; Win64; x64) AppleWebKit/537.36 (KHTML, like Gecko) Chrome/114.0.0.0 Safari/537.36" etag="AZH8HxfFh4yCBwbqrA8W" version="21.3.7" type="github">
  <diagram name="第 1 页" id="O_QHGvnCZH730tNBmOar">
    <mxGraphModel dx="4168" dy="2040" grid="1" gridSize="10" guides="1" tooltips="1" connect="1" arrows="1" fold="1" page="1" pageScale="1" pageWidth="827" pageHeight="1169" math="0" shadow="0">
      <root>
        <mxCell id="0" />
        <mxCell id="1" parent="0" />
        <mxCell id="saVYviV8NVjSQybobaWA-1" value="" style="rounded=1;whiteSpace=wrap;html=1;fillColor=none;glass=0;strokeColor=#6C8EBF;arcSize=6;" parent="1" vertex="1">
          <mxGeometry x="-2020" y="-450" width="990" height="1280" as="geometry" />
        </mxCell>
        <mxCell id="saVYviV8NVjSQybobaWA-2" value="" style="rounded=0;whiteSpace=wrap;html=1;fillColor=#E6EFFF;strokeColor=#6C8EBF;" parent="1" vertex="1">
          <mxGeometry x="160" y="640" width="920" height="180" as="geometry" />
        </mxCell>
        <mxCell id="saVYviV8NVjSQybobaWA-3" value="" style="rounded=0;whiteSpace=wrap;html=1;strokeColor=#6C8EBF;" parent="1" vertex="1">
          <mxGeometry x="170" y="690" width="270" height="120" as="geometry" />
        </mxCell>
        <mxCell id="saVYviV8NVjSQybobaWA-4" value="事件日志表" style="rounded=0;whiteSpace=wrap;html=1;strokeColor=#6C8EBF;" parent="1" vertex="1">
          <mxGeometry x="180" y="740" width="120" height="60" as="geometry" />
        </mxCell>
        <mxCell id="saVYviV8NVjSQybobaWA-5" value="用户日志表" style="rounded=0;whiteSpace=wrap;html=1;strokeColor=#6C8EBF;" parent="1" vertex="1">
          <mxGeometry x="310" y="740" width="120" height="60" as="geometry" />
        </mxCell>
        <mxCell id="saVYviV8NVjSQybobaWA-6" value="埋点日志" style="text;html=1;strokeColor=none;fillColor=none;align=center;verticalAlign=middle;whiteSpace=wrap;rounded=0;" parent="1" vertex="1">
          <mxGeometry x="180" y="700" width="60" height="30" as="geometry" />
        </mxCell>
        <mxCell id="saVYviV8NVjSQybobaWA-7" value="" style="rounded=0;whiteSpace=wrap;html=1;strokeColor=#6C8EBF;" parent="1" vertex="1">
          <mxGeometry x="450" y="690" width="620" height="120" as="geometry" />
        </mxCell>
        <mxCell id="saVYviV8NVjSQybobaWA-8" value="ODS" style="text;html=1;strokeColor=none;fillColor=none;align=center;verticalAlign=middle;whiteSpace=wrap;rounded=0;" parent="1" vertex="1">
          <mxGeometry x="170" y="650" width="60" height="30" as="geometry" />
        </mxCell>
        <mxCell id="saVYviV8NVjSQybobaWA-10" value="业务系统数据" style="text;html=1;strokeColor=none;fillColor=none;align=center;verticalAlign=middle;whiteSpace=wrap;rounded=0;" parent="1" vertex="1">
          <mxGeometry x="460" y="700" width="80" height="30" as="geometry" />
        </mxCell>
        <mxCell id="saVYviV8NVjSQybobaWA-11" value="" style="rounded=0;whiteSpace=wrap;html=1;fillColor=#E6EFFF;strokeColor=#6c8ebf;" parent="1" vertex="1">
          <mxGeometry x="160" y="150" width="760" height="470" as="geometry" />
        </mxCell>
        <mxCell id="saVYviV8NVjSQybobaWA-13" value="" style="rounded=0;whiteSpace=wrap;html=1;fillColor=#E6EFFF;strokeColor=#6c8ebf;" parent="1" vertex="1">
          <mxGeometry x="940" y="-160" width="140" height="780" as="geometry" />
        </mxCell>
        <mxCell id="saVYviV8NVjSQybobaWA-14" value="DIM" style="text;html=1;strokeColor=none;fillColor=none;align=center;verticalAlign=middle;whiteSpace=wrap;rounded=0;" parent="1" vertex="1">
          <mxGeometry x="950" y="-150" width="60" height="30" as="geometry" />
        </mxCell>
        <mxCell id="saVYviV8NVjSQybobaWA-21" value="用户维度表" style="rounded=0;whiteSpace=wrap;html=1;strokeColor=#6C8EBF;" parent="1" vertex="1">
          <mxGeometry x="950" y="550" width="120" height="60" as="geometry" />
        </mxCell>
        <mxCell id="saVYviV8NVjSQybobaWA-22" value="课程维度表" style="rounded=0;whiteSpace=wrap;html=1;strokeColor=#6C8EBF;" parent="1" vertex="1">
          <mxGeometry x="950" y="340" width="120" height="60" as="geometry" />
        </mxCell>
        <mxCell id="saVYviV8NVjSQybobaWA-23" value="章节维度表" style="rounded=0;whiteSpace=wrap;html=1;strokeColor=#6C8EBF;" parent="1" vertex="1">
          <mxGeometry x="950" y="270" width="120" height="60" as="geometry" />
        </mxCell>
        <mxCell id="saVYviV8NVjSQybobaWA-25" value="优惠券维度表" style="rounded=0;whiteSpace=wrap;html=1;strokeColor=#6C8EBF;" parent="1" vertex="1">
          <mxGeometry x="950" y="60" width="120" height="60" as="geometry" />
        </mxCell>
        <mxCell id="saVYviV8NVjSQybobaWA-26" value="活动维度表" style="rounded=0;whiteSpace=wrap;html=1;strokeColor=#6C8EBF;" parent="1" vertex="1">
          <mxGeometry x="950" y="130" width="120" height="60" as="geometry" />
        </mxCell>
        <mxCell id="saVYviV8NVjSQybobaWA-27" value="地区维度表" style="rounded=0;whiteSpace=wrap;html=1;strokeColor=#6C8EBF;" parent="1" vertex="1">
          <mxGeometry x="950" y="480" width="120" height="60" as="geometry" />
        </mxCell>
        <mxCell id="saVYviV8NVjSQybobaWA-28" value="时间维度表" style="rounded=0;whiteSpace=wrap;html=1;strokeColor=#6C8EBF;" parent="1" vertex="1">
          <mxGeometry x="950" y="410" width="120" height="60" as="geometry" />
        </mxCell>
        <mxCell id="saVYviV8NVjSQybobaWA-30" value="作业维度表" style="rounded=0;whiteSpace=wrap;html=1;strokeColor=#6C8EBF;" parent="1" vertex="1">
          <mxGeometry x="950" y="200" width="120" height="60" as="geometry" />
        </mxCell>
        <mxCell id="saVYviV8NVjSQybobaWA-34" value="流量主题" style="rounded=0;whiteSpace=wrap;html=1;" parent="1" vertex="1">
          <mxGeometry x="610" y="-520" width="120" height="60" as="geometry" />
        </mxCell>
        <mxCell id="saVYviV8NVjSQybobaWA-35" value="用户主题" style="rounded=0;whiteSpace=wrap;html=1;" parent="1" vertex="1">
          <mxGeometry x="350" y="-520" width="120" height="60" as="geometry" />
        </mxCell>
        <mxCell id="saVYviV8NVjSQybobaWA-36" value="课程主题" style="rounded=0;whiteSpace=wrap;html=1;" parent="1" vertex="1">
          <mxGeometry x="740" y="-520" width="120" height="60" as="geometry" />
        </mxCell>
        <mxCell id="saVYviV8NVjSQybobaWA-39" value="交易主题" style="rounded=0;whiteSpace=wrap;html=1;" parent="1" vertex="1">
          <mxGeometry x="480" y="-520" width="120" height="60" as="geometry" />
        </mxCell>
        <mxCell id="saVYviV8NVjSQybobaWA-41" value="学习主题" style="rounded=0;whiteSpace=wrap;html=1;" parent="1" vertex="1">
          <mxGeometry x="870" y="-520" width="120" height="60" as="geometry" />
        </mxCell>
        <mxCell id="saVYviV8NVjSQybobaWA-87" value="DWD" style="text;html=1;strokeColor=none;fillColor=none;align=center;verticalAlign=middle;whiteSpace=wrap;rounded=0;" parent="1" vertex="1">
          <mxGeometry x="170" y="160" width="60" height="30" as="geometry" />
        </mxCell>
        <mxCell id="saVYviV8NVjSQybobaWA-106" value="" style="rounded=0;whiteSpace=wrap;html=1;strokeColor=#6C8EBF;" parent="1" vertex="1">
          <mxGeometry x="770" y="200" width="140" height="410" as="geometry" />
        </mxCell>
        <mxCell id="saVYviV8NVjSQybobaWA-88" value="" style="rounded=0;whiteSpace=wrap;html=1;strokeColor=#6C8EBF;fillColor=#E6EFFF;" parent="1" vertex="1">
          <mxGeometry x="160" y="-90" width="760" height="220" as="geometry" />
        </mxCell>
        <mxCell id="saVYviV8NVjSQybobaWA-89" value="DWS" style="text;html=1;strokeColor=none;fillColor=none;align=center;verticalAlign=middle;whiteSpace=wrap;rounded=0;" parent="1" vertex="1">
          <mxGeometry x="170" y="-80" width="60" height="30" as="geometry" />
        </mxCell>
        <mxCell id="saVYviV8NVjSQybobaWA-90" value="交易域加购汇总" style="rounded=0;whiteSpace=wrap;html=1;strokeColor=#6C8EBF;" parent="1" vertex="1">
          <mxGeometry x="170" y="60" width="120" height="60" as="geometry" />
        </mxCell>
        <mxCell id="saVYviV8NVjSQybobaWA-91" value="学习域直播汇总" style="rounded=0;whiteSpace=wrap;html=1;strokeColor=#6C8EBF;" parent="1" vertex="1">
          <mxGeometry x="170" y="-10" width="120" height="60" as="geometry" />
        </mxCell>
        <mxCell id="saVYviV8NVjSQybobaWA-92" value="交易域下单汇总" style="rounded=0;whiteSpace=wrap;html=1;strokeColor=#6C8EBF;" parent="1" vertex="1">
          <mxGeometry x="300" y="60" width="120" height="60" as="geometry" />
        </mxCell>
        <mxCell id="saVYviV8NVjSQybobaWA-93" value="" style="rounded=0;whiteSpace=wrap;html=1;strokeColor=#6C8EBF;fillColor=#E6EFFF;" parent="1" vertex="1">
          <mxGeometry x="260" y="-400" width="820" height="220" as="geometry" />
        </mxCell>
        <mxCell id="saVYviV8NVjSQybobaWA-94" value="ADS" style="text;html=1;strokeColor=none;fillColor=none;align=center;verticalAlign=middle;whiteSpace=wrap;rounded=0;" parent="1" vertex="1">
          <mxGeometry x="270" y="-390" width="60" height="30" as="geometry" />
        </mxCell>
        <mxCell id="saVYviV8NVjSQybobaWA-99" value="交易域支付汇总" style="rounded=0;whiteSpace=wrap;html=1;strokeColor=#6C8EBF;" parent="1" vertex="1">
          <mxGeometry x="430" y="60" width="120" height="60" as="geometry" />
        </mxCell>
        <mxCell id="saVYviV8NVjSQybobaWA-100" value="交易域退款汇总" style="rounded=0;whiteSpace=wrap;html=1;strokeColor=#6C8EBF;" parent="1" vertex="1">
          <mxGeometry x="560" y="60" width="120" height="60" as="geometry" />
        </mxCell>
        <mxCell id="saVYviV8NVjSQybobaWA-101" value="学习域作业汇总" style="rounded=0;whiteSpace=wrap;html=1;strokeColor=#6C8EBF;" parent="1" vertex="1">
          <mxGeometry x="300" y="-10" width="120" height="60" as="geometry" />
        </mxCell>
        <mxCell id="saVYviV8NVjSQybobaWA-102" value="学习域课程汇总" style="rounded=0;whiteSpace=wrap;html=1;strokeColor=#6C8EBF;" parent="1" vertex="1">
          <mxGeometry x="430" y="-10" width="120" height="60" as="geometry" />
        </mxCell>
        <mxCell id="saVYviV8NVjSQybobaWA-103" value="考试域试卷粒度汇总" style="rounded=0;whiteSpace=wrap;html=1;" parent="1" vertex="1">
          <mxGeometry x="560" y="-10" width="120" height="60" as="geometry" />
        </mxCell>
        <mxCell id="saVYviV8NVjSQybobaWA-104" value="交易主题：加购次数、加购人数、加购金额、下单次数、下单人数、下单金额、优惠金额、支付金额、退款次数、退款金额&lt;br&gt;课程主题：" style="text;html=1;strokeColor=none;fillColor=none;align=left;verticalAlign=middle;whiteSpace=wrap;rounded=0;" parent="1" vertex="1">
          <mxGeometry x="270" y="-360" width="800" height="70" as="geometry" />
        </mxCell>
        <mxCell id="saVYviV8NVjSQybobaWA-105" value="考试域题目粒度汇总" style="rounded=0;whiteSpace=wrap;html=1;" parent="1" vertex="1">
          <mxGeometry x="690" y="-10" width="120" height="60" as="geometry" />
        </mxCell>
        <mxCell id="saVYviV8NVjSQybobaWA-107" value="学习域" style="text;html=1;strokeColor=none;fillColor=none;align=center;verticalAlign=middle;whiteSpace=wrap;rounded=0;" parent="1" vertex="1">
          <mxGeometry x="810" y="215" width="60" height="30" as="geometry" />
        </mxCell>
        <mxCell id="saVYviV8NVjSQybobaWA-60" value="预约直播事实明细" style="rounded=0;whiteSpace=wrap;html=1;strokeColor=#6C8EBF;" parent="1" vertex="1">
          <mxGeometry x="780" y="260" width="120" height="60" as="geometry" />
        </mxCell>
        <mxCell id="saVYviV8NVjSQybobaWA-69" value="观看直播事实明细" style="rounded=0;whiteSpace=wrap;html=1;strokeColor=#6C8EBF;" parent="1" vertex="1">
          <mxGeometry x="780" y="330" width="120" height="60" as="geometry" />
        </mxCell>
        <mxCell id="saVYviV8NVjSQybobaWA-72" value="提交作业事实明细" style="rounded=0;whiteSpace=wrap;html=1;strokeColor=#6C8EBF;" parent="1" vertex="1">
          <mxGeometry x="780" y="470" width="120" height="60" as="geometry" />
        </mxCell>
        <mxCell id="saVYviV8NVjSQybobaWA-74" value="学习课程事实明细" style="rounded=0;whiteSpace=wrap;html=1;strokeColor=#6C8EBF;" parent="1" vertex="1">
          <mxGeometry x="780" y="400" width="120" height="60" as="geometry" />
        </mxCell>
        <mxCell id="saVYviV8NVjSQybobaWA-73" value="......" style="rounded=0;whiteSpace=wrap;html=1;strokeColor=#6C8EBF;" parent="1" vertex="1">
          <mxGeometry x="780" y="540" width="120" height="60" as="geometry" />
        </mxCell>
        <mxCell id="wcvfJDTOzy3qHPwnN3P7-1" value="" style="rounded=0;whiteSpace=wrap;html=1;strokeColor=#6C8EBF;" vertex="1" parent="1">
          <mxGeometry x="620" y="200" width="140" height="410" as="geometry" />
        </mxCell>
        <mxCell id="wcvfJDTOzy3qHPwnN3P7-2" value="用户域" style="text;html=1;strokeColor=none;fillColor=none;align=center;verticalAlign=middle;whiteSpace=wrap;rounded=0;" vertex="1" parent="1">
          <mxGeometry x="660" y="215" width="60" height="30" as="geometry" />
        </mxCell>
        <mxCell id="saVYviV8NVjSQybobaWA-59" value="用户注册事实明细" style="rounded=0;whiteSpace=wrap;html=1;strokeColor=#6C8EBF;" parent="1" vertex="1">
          <mxGeometry x="630" y="260" width="120" height="60" as="geometry" />
        </mxCell>
        <mxCell id="saVYviV8NVjSQybobaWA-70" value="教师注册事实明细" style="rounded=0;whiteSpace=wrap;html=1;strokeColor=#6C8EBF;" parent="1" vertex="1">
          <mxGeometry x="630" y="330" width="120" height="60" as="geometry" />
        </mxCell>
        <mxCell id="saVYviV8NVjSQybobaWA-71" value="......" style="rounded=0;whiteSpace=wrap;html=1;strokeColor=#6C8EBF;" parent="1" vertex="1">
          <mxGeometry x="630" y="470" width="120" height="60" as="geometry" />
        </mxCell>
        <mxCell id="wcvfJDTOzy3qHPwnN3P7-4" value="" style="rounded=0;whiteSpace=wrap;html=1;strokeColor=#6C8EBF;" vertex="1" parent="1">
          <mxGeometry x="470" y="200" width="140" height="410" as="geometry" />
        </mxCell>
        <mxCell id="wcvfJDTOzy3qHPwnN3P7-5" value="流量域" style="text;html=1;strokeColor=none;fillColor=none;align=center;verticalAlign=middle;whiteSpace=wrap;rounded=0;" vertex="1" parent="1">
          <mxGeometry x="510" y="215" width="60" height="30" as="geometry" />
        </mxCell>
        <mxCell id="saVYviV8NVjSQybobaWA-66" value="页面点击明细" style="rounded=0;whiteSpace=wrap;html=1;strokeColor=#6C8EBF;" parent="1" vertex="1">
          <mxGeometry x="480" y="330" width="120" height="60" as="geometry" />
        </mxCell>
        <mxCell id="saVYviV8NVjSQybobaWA-50" value="默认事件事实明细" style="rounded=0;whiteSpace=wrap;html=1;strokeColor=#6C8EBF;" parent="1" vertex="1">
          <mxGeometry x="480" y="400" width="120" height="60" as="geometry" />
        </mxCell>
        <mxCell id="saVYviV8NVjSQybobaWA-63" value="页面浏览明细" style="rounded=0;whiteSpace=wrap;html=1;strokeColor=#6C8EBF;" parent="1" vertex="1">
          <mxGeometry x="480" y="260" width="120" height="60" as="geometry" />
        </mxCell>
        <mxCell id="wcvfJDTOzy3qHPwnN3P7-7" value="" style="rounded=0;whiteSpace=wrap;html=1;strokeColor=#6C8EBF;" vertex="1" parent="1">
          <mxGeometry x="320" y="200" width="140" height="410" as="geometry" />
        </mxCell>
        <mxCell id="wcvfJDTOzy3qHPwnN3P7-8" value="互动域" style="text;html=1;strokeColor=none;fillColor=none;align=center;verticalAlign=middle;whiteSpace=wrap;rounded=0;" vertex="1" parent="1">
          <mxGeometry x="360" y="215" width="60" height="30" as="geometry" />
        </mxCell>
        <mxCell id="saVYviV8NVjSQybobaWA-67" value="课程评价事实明细" style="rounded=0;whiteSpace=wrap;html=1;strokeColor=#6C8EBF;" parent="1" vertex="1">
          <mxGeometry x="330" y="260" width="120" height="60" as="geometry" />
        </mxCell>
        <mxCell id="saVYviV8NVjSQybobaWA-62" value="课程收藏事实明细" style="rounded=0;whiteSpace=wrap;html=1;strokeColor=#6C8EBF;" parent="1" vertex="1">
          <mxGeometry x="330" y="330" width="120" height="60" as="geometry" />
        </mxCell>
        <mxCell id="wcvfJDTOzy3qHPwnN3P7-9" value="" style="rounded=0;whiteSpace=wrap;html=1;strokeColor=#6C8EBF;" vertex="1" parent="1">
          <mxGeometry x="170" y="200" width="140" height="410" as="geometry" />
        </mxCell>
        <mxCell id="wcvfJDTOzy3qHPwnN3P7-10" value="......" style="rounded=0;whiteSpace=wrap;html=1;strokeColor=#6C8EBF;" vertex="1" parent="1">
          <mxGeometry x="480" y="470" width="120" height="60" as="geometry" />
        </mxCell>
        <mxCell id="wcvfJDTOzy3qHPwnN3P7-11" value="交易域" style="text;html=1;strokeColor=none;fillColor=none;align=center;verticalAlign=middle;whiteSpace=wrap;rounded=0;" vertex="1" parent="1">
          <mxGeometry x="210" y="215" width="60" height="30" as="geometry" />
        </mxCell>
        <mxCell id="saVYviV8NVjSQybobaWA-64" value="交易域加购事实明细" style="rounded=0;whiteSpace=wrap;html=1;strokeColor=#6C8EBF;" parent="1" vertex="1">
          <mxGeometry x="180" y="260" width="120" height="60" as="geometry" />
        </mxCell>
        <mxCell id="saVYviV8NVjSQybobaWA-65" value="下单事实明细" style="rounded=0;whiteSpace=wrap;html=1;strokeColor=#6C8EBF;" parent="1" vertex="1">
          <mxGeometry x="180" y="330" width="120" height="60" as="geometry" />
        </mxCell>
        <mxCell id="saVYviV8NVjSQybobaWA-18" value="支付事实明细" style="rounded=0;whiteSpace=wrap;html=1;strokeColor=#6C8EBF;" parent="1" vertex="1">
          <mxGeometry x="180" y="400" width="120" height="60" as="geometry" />
        </mxCell>
        <mxCell id="saVYviV8NVjSQybobaWA-24" value="退款事实明细" style="rounded=0;whiteSpace=wrap;html=1;strokeColor=#6C8EBF;" parent="1" vertex="1">
          <mxGeometry x="180" y="470" width="120" height="60" as="geometry" />
        </mxCell>
        <mxCell id="wcvfJDTOzy3qHPwnN3P7-13" value="......" style="rounded=0;whiteSpace=wrap;html=1;strokeColor=#6C8EBF;" vertex="1" parent="1">
          <mxGeometry x="180" y="540" width="120" height="60" as="geometry" />
        </mxCell>
        <mxCell id="wcvfJDTOzy3qHPwnN3P7-14" value="......" style="rounded=0;whiteSpace=wrap;html=1;strokeColor=#6C8EBF;" vertex="1" parent="1">
          <mxGeometry x="330" y="400" width="120" height="60" as="geometry" />
        </mxCell>
        <mxCell id="wcvfJDTOzy3qHPwnN3P7-16" value="加购事实明细" style="rounded=0;whiteSpace=wrap;html=1;strokeColor=#6C8EBF;" vertex="1" parent="1">
          <mxGeometry x="180" y="260" width="120" height="60" as="geometry" />
        </mxCell>
        <mxCell id="wcvfJDTOzy3qHPwnN3P7-22" value="开通会员事实明细" style="rounded=0;whiteSpace=wrap;html=1;strokeColor=#6C8EBF;" vertex="1" parent="1">
          <mxGeometry x="630" y="400" width="120" height="60" as="geometry" />
        </mxCell>
      </root>
    </mxGraphModel>
  </diagram>
</mxfile>
